3.0Hz3min_grf.mot
version=1
nRows=30
nColumns 19
inDegrees=yes
endheader
time	1_ground_force_vx	1_ground_force_vy	1_ground_force_vz	1_ground_force_px	1_ground_force_py	1_ground_force_pz	1_ground_torque_x	1_ground_torque_y	1_ground_torque_z	2_ground_force_vx	2_ground_force_vy	2_ground_force_vz	2_ground_force_px	2_ground_force_py	2_ground_force_pz	2_ground_torque_x	2_ground_torque_y	2_ground_torque_z
            0.005000	           -0.227897	           -0.362738	            0.503438	           -0.149205	            0.006071	           -0.366349	           -0.152905	            0.074153	           -0.084256	           -0.091809	           -0.551946	           -0.236572	           -0.174574	            0.005875	           -0.703757	           -0.037631	            0.018703	            0.018934
            0.005500	            0.093672	           -0.904456	            0.729602	           -0.149205	            0.006071	           -0.366349	           -0.087112	            0.037186	           -0.033279	           -0.000329	            0.002678	           -0.750850	           -0.174574	            0.005875	           -0.703757	           -0.037537	           -0.009588	           -0.000018
            0.006000	           -0.043953	           -1.625152	            0.635140	           -0.149205	            0.006071	           -0.366349	           -0.120251	            0.046276	           -0.020198	           -0.327552	           -0.183157	           -0.610583	           -0.174574	            0.005875	           -0.703757	           -0.056382	            0.009182	            0.018908
            0.006500	            0.276864	           -0.543693	            0.684837	           -0.149205	            0.006071	           -0.366349	           -0.104226	           -0.008790	           -0.063224	           -0.278085	           -0.919246	           -0.707087	           -0.174574	            0.005875	           -0.703757	           -0.131428	           -0.028564	           -0.075446
            0.007000	            0.047245	           -1.444083	            0.452262	           -0.149205	            0.006071	           -0.366349	            0.000056	            0.009442	           -0.035550	            0.048597	           -0.550267	           -0.565128	           -0.174574	            0.005875	           -0.703757	           -0.018702	           -0.009924	            0.113075
            0.007500	            0.001662	           -1.624750	            0.543314	           -0.149205	            0.006071	           -0.366349	           -0.153817	           -0.046227	            0.000241	           -0.093261	           -0.182646	           -0.516826	           -0.174574	            0.005875	           -0.703757	           -0.075227	            0.027952	            0.037834
            0.008000	           -0.136340	           -0.903124	            0.409180	           -0.149205	            0.006071	           -0.366349	           -0.167403	            0.037215	           -0.080449	            0.001124	           -0.366623	           -0.470595	           -0.174574	            0.005875	           -0.703757	           -0.056408	            0.018567	            0.037792
            0.008500	            0.000863	           -0.361908	            0.319445	           -0.149205	            0.006071	           -0.366349	           -0.107329	            0.073938	            0.000596	            0.003844	           -1.103718	           -0.332439	           -0.174574	            0.005875	           -0.703757	           -0.056586	            0.056714	           -0.056324
            0.009000	           -0.044120	            0.537642	            0.736127	           -0.149205	            0.006071	           -0.366349	           -0.106822	            0.018632	           -0.039225	           -0.093241	           -0.182813	           -0.469898	           -0.174574	            0.005875	           -0.703757	           -0.000196	            0.056649	            0.019053
            0.009500	            0.047748	           -1.084534	            0.683087	           -0.149205	            0.006071	           -0.366349	           -0.122541	            0.027833	           -0.016381	            0.002494	           -0.735254	           -0.378053	           -0.174574	            0.005875	           -0.703757	           -0.056365	            0.009048	            0.056608
            0.010000	           -0.043809	           -0.544148	            0.777345	           -0.149205	            0.006071	           -0.366349	           -0.108032	            0.000066	           -0.020465	           -0.044459	           -0.734587	           -0.612674	           -0.174574	            0.005875	           -0.703757	           -0.075269	            0.028288	           -0.056417
            0.010500	            0.368748	           -1.625269	            0.679972	           -0.149205	            0.006071	           -0.366349	           -0.178519	            0.009563	           -0.021416	           -0.186358	           -0.366630	           -0.658228	           -0.174574	            0.005875	           -0.703757	           -0.131540	            0.009045	           -0.018761
            0.011000	            0.093591	           -1.084525	            0.682973	           -0.149205	            0.006071	           -0.366349	           -0.103716	            0.018533	            0.004285	           -0.044459	           -0.734587	           -0.612674	           -0.174574	            0.005875	           -0.703757	           -0.018854	            0.018838	            0.000075
            0.011500	            0.184918	           -0.363052	            0.594126	           -0.149205	            0.006071	           -0.366349	           -0.194498	            0.046930	           -0.141869	            0.001103	           -0.366456	           -0.517523	           -0.174574	            0.005875	           -0.703757	           -0.018853	            0.009654	           -0.075359
            0.012000	           -0.227747	           -1.804667	            0.451398	           -0.149205	            0.006071	           -0.366349	           -0.168605	            0.055338	           -0.009054	           -0.044438	           -0.734754	           -0.565746	           -0.174574	            0.005875	           -0.703757	           -0.075235	            0.028020	            0.018983
            0.012500	            0.185100	           -1.985246	            0.541313	           -0.149205	            0.006071	           -0.366349	           -0.134950	            0.046536	           -0.047970	           -0.095940	            0.554115	           -0.561126	           -0.174574	            0.005875	           -0.703757	           -0.169041	           -0.019180	           -0.094247
            0.013000	            0.093723	           -1.805588	            0.679882	           -0.149205	            0.006071	           -0.366349	           -0.084614	           -0.018195	           -0.052289	            0.003035	           -0.918398	           -0.660279	           -0.174574	            0.005875	           -0.703757	           -0.131370	           -0.029035	            0.056505
            0.013500	           -0.135864	           -2.886243	            0.446533	           -0.149205	            0.006071	           -0.366349	           -0.224440	            0.000312	           -0.099194	           -0.089897	           -1.103722	           -0.426255	           -0.174574	            0.005875	           -0.703757	           -0.094089	            0.046857	            0.019059
            0.014000	           -0.135495	           -0.544166	            0.777573	           -0.149205	            0.006071	           -0.366349	           -0.070589	           -0.009051	           -0.062103	           -0.045144	           -0.550271	           -0.658945	           -0.174574	            0.005875	           -0.703757	           -0.150692	            0.112890	            0.000469
            0.014500	            0.047128	           -0.182419	            0.503528	           -0.149205	            0.006071	           -0.366349	           -0.208983	            0.082947	            0.059230	           -0.141543	            0.186319	           -0.750133	           -0.174574	            0.005875	           -0.703757	           -0.037706	            0.028491	           -0.075284
            0.015000	           -0.044765	           -2.164377	            0.265974	           -0.149205	            0.006071	           -0.366349	           -0.141856	            0.064826	           -0.038844	            0.094762	           -0.365783	           -0.611419	           -0.174574	            0.005875	           -0.703757	           -0.018837	            0.018703	            0.037776
            0.015500	           -0.227457	           -0.904125	            0.638687	           -0.149205	            0.006071	           -0.366349	           -0.120976	            0.092812	           -0.121832	           -0.045809	           -0.366123	           -0.658288	           -0.174574	            0.005875	           -0.703757	           -0.018742	           -0.018772	           -0.056610
            0.016000	           -0.090545	           -1.263450	            0.361664	           -0.149205	            0.006071	           -0.366349	           -0.165114	            0.018587	           -0.040971	           -0.046370	           -0.182811	           -0.422990	           -0.174574	            0.005875	           -0.703757	            0.018734	            0.018839	            0.037760
            0.016500	            0.139176	           -2.165324	            0.494798	           -0.149205	            0.006071	           -0.366349	           -0.132735	            0.000055	            0.006271	           -0.138844	           -0.550609	           -0.658905	           -0.174574	            0.005875	           -0.703757	            0.037340	            0.066237	            0.019070
            0.017000	           -0.044636	           -1.623973	            0.360004	           -0.149205	            0.006071	           -0.366349	           -0.164874	            0.000121	           -0.039083	           -0.140776	            0.001334	           -0.516149	           -0.174574	            0.005875	           -0.703757	           -0.037954	            0.103911	           -0.018463
            0.017500	            0.047323	           -0.002547	            0.596013	           -0.149205	            0.006071	           -0.366349	           -0.100840	            0.065291	           -0.129102	           -0.327511	           -0.183491	           -0.516727	           -0.174574	            0.005875	           -0.703757	           -0.188161	            0.084396	            0.000383
            0.018000	           -0.135657	           -0.904304	            0.684315	           -0.149205	            0.006071	           -0.366349	           -0.178802	            0.008928	            0.051044	            0.098167	           -1.287194	           -0.426992	           -0.174574	            0.005875	           -0.703757	            0.018640	            0.047130	            0.056711
            0.018500	           -0.135495	           -0.544166	            0.777573	           -0.149205	            0.006071	           -0.366349	           -0.239458	            0.064703	           -0.023771	           -0.091932	           -0.550942	           -0.518140	           -0.174574	            0.005875	           -0.703757	            0.018768	            0.009386	            0.037726
            0.019000	            0.092647	           -0.902687	            0.316899	           -0.149205	            0.006071	           -0.366349	           -0.069651	            0.018930	           -0.089795	           -0.234517	            0.001330	           -0.609966	           -0.174574	            0.005875	           -0.703757	           -0.131481	           -0.000609	            0.037756
            0.019500	            0.138619	           -0.362274	            0.410816	           -0.149205	            0.006071	           -0.366349	           -0.054947	            0.027878	           -0.012665	           -0.186358	           -0.366630	           -0.658228	           -0.174574	            0.005875	           -0.703757	           -0.000078	            0.028156	            0.056652
